<svg width="1354" height="1325" viewBox="0 0 1354 1325" fill="none" xmlns="http://www.w3.org/2000/svg">
<path d="M187.913 32.6449C199.99 18.128 226.421 10.4801 238.127 8.47068C241.626 9.84958 240.691 12.7742 239.786 14.0642C238.663 14.3445 236.143 16.9978 235.045 25.3689C235.561 29.59 238.652 31.5383 240.133 31.9849C241.492 32.3651 245.116 33.7405 248.739 36.2002C253.063 40.6926 250.801 43.4988 249.13 44.3403C246.704 44.9119 240.989 46.8237 237.535 49.8974C234.515 52.9445 235.495 57.9027 236.362 60.001L238.432 65.5374C239.506 66.2623 241.403 66.873 241.076 68.6652C238.587 73.5022 237.82 72.5686 234.05 72.6746C231.035 72.7595 217.668 68.011 211.362 65.6261C198.337 60.9134 175.413 47.7195 187.913 32.6449Z" fill="#BFBFBF"/>
<path d="M497.971 72.8218C514.151 63.0859 541.628 64.5587 553.343 66.5122C556.193 68.9653 554.348 71.4195 553.069 72.3399C551.917 72.2353 548.664 73.912 544.873 81.4558C543.972 85.6117 546.25 88.4685 547.502 89.3774C548.66 90.1836 551.63 92.6747 554.242 96.1894C556.847 101.854 553.788 103.76 551.933 104.005C549.454 103.747 543.428 103.672 539.156 105.438C535.301 107.322 534.595 112.327 534.724 114.594L534.858 120.503C535.633 121.541 537.224 122.741 536.326 124.326C532.384 128.075 531.966 126.941 528.372 125.801C525.496 124.889 514.436 116.008 509.265 111.681C498.516 102.946 481.208 82.9452 497.971 72.8218Z" fill="#BFBFBF"/>
<path d="M787.724 296.618C806.51 294.703 830.741 307.739 840.509 314.497C842.042 317.931 839.328 319.365 837.778 319.653C836.78 319.068 833.124 319.199 826.48 324.409C823.894 327.785 824.738 331.34 825.484 332.696C826.188 333.919 827.814 337.438 828.68 341.73C828.624 347.965 825.045 348.386 823.262 347.817C821.129 346.528 815.709 343.893 811.091 343.672C806.802 343.734 804.031 347.961 803.182 350.067L800.786 355.47C801.045 356.739 801.973 358.503 800.485 359.555C795.321 361.267 795.427 360.063 792.66 357.501C790.447 355.451 784.224 342.704 781.389 336.587C775.385 324.105 768.246 298.637 787.724 296.618Z" fill="#BFBFBF"/>
<path d="M971.724 533.618C990.51 531.703 1014.74 544.739 1024.51 551.497C1026.04 554.931 1023.33 556.365 1021.78 556.653C1020.78 556.068 1017.12 556.199 1010.48 561.409C1007.89 564.785 1008.74 568.34 1009.48 569.696C1010.19 570.919 1011.81 574.438 1012.68 578.73C1012.62 584.965 1009.04 585.386 1007.26 584.817C1005.13 583.528 999.709 580.893 995.091 580.672C990.802 580.734 988.031 584.961 987.182 587.067L984.786 592.47C985.045 593.739 985.973 595.503 984.485 596.555C979.321 598.267 979.427 597.063 976.66 594.501C974.447 592.451 968.224 579.704 965.389 573.587C959.385 561.105 952.246 535.637 971.724 533.618Z" fill="#BFBFBF"/>
<path d="M1061.72 696.618C1080.51 694.703 1104.74 707.739 1114.51 714.497C1116.04 717.931 1113.33 719.365 1111.78 719.653C1110.78 719.068 1107.12 719.199 1100.48 724.409C1097.89 727.785 1098.74 731.34 1099.48 732.696C1100.19 733.919 1101.81 737.438 1102.68 741.73C1102.62 747.965 1099.04 748.386 1097.26 747.817C1095.13 746.528 1089.71 743.893 1085.09 743.672C1080.8 743.734 1078.03 747.961 1077.18 750.067L1074.79 755.47C1075.04 756.739 1075.97 758.503 1074.48 759.555C1069.32 761.267 1069.43 760.063 1066.66 757.501C1064.45 755.451 1058.22 742.704 1055.39 736.587C1049.38 724.105 1042.25 698.637 1061.72 696.618Z" fill="#BFBFBF"/>
<path d="M1089.84 1109.79C1087.19 1128.49 1068.71 1148.88 1059.81 1156.74C1056.11 1157.4 1055.37 1154.42 1055.46 1152.85C1056.27 1152.02 1057.02 1148.44 1053.55 1140.74C1050.9 1137.42 1047.24 1137.39 1045.75 1137.79C1044.39 1138.18 1040.59 1138.91 1036.21 1138.72C1030.17 1137.17 1030.62 1133.59 1031.6 1132C1033.37 1130.24 1037.23 1125.61 1038.55 1121.18C1039.52 1117 1036.08 1113.3 1034.24 1111.97L1029.57 1108.34C1028.28 1108.29 1026.34 1108.77 1025.68 1107.07C1025.25 1101.65 1026.4 1102.04 1029.55 1099.97C1032.07 1098.31 1045.94 1095.33 1052.56 1094.05C1066.12 1091.21 1092.55 1090.4 1089.84 1109.79Z" fill="#BFBFBF"/>
<path d="M655.998 1191.8C648.463 1209.12 625.225 1223.85 614.547 1229.06C610.803 1228.71 610.883 1225.64 611.391 1224.15C612.39 1223.57 614.068 1220.31 612.781 1211.97C611.106 1208.06 607.593 1207.05 606.046 1207.04C604.635 1207.06 600.771 1206.75 596.604 1205.4C591.197 1202.3 592.584 1198.97 593.953 1197.69C596.122 1196.47 601.075 1193.03 603.531 1189.12C605.579 1185.35 603.251 1180.86 601.832 1179.09L598.296 1174.35C597.063 1173.96 595.07 1173.9 594.883 1172.09C595.92 1166.75 596.918 1167.43 600.507 1166.27C603.379 1165.35 617.54 1166.17 624.261 1166.7C638.084 1167.58 663.784 1173.83 655.998 1191.8Z" fill="#BFBFBF"/>
<path d="M155.727 1208.21C148.192 1225.52 124.954 1240.26 114.276 1245.46C110.532 1245.11 110.612 1242.04 111.12 1240.55C112.119 1239.97 113.797 1236.72 112.51 1228.37C110.835 1224.47 107.322 1223.46 105.775 1223.44C104.364 1223.46 100.5 1223.15 96.3333 1221.8C90.926 1218.7 92.3129 1215.37 93.6823 1214.1C95.8514 1212.87 100.804 1209.44 103.26 1205.52C105.308 1201.75 102.98 1197.26 101.561 1195.49L98.0248 1190.75C96.7918 1190.36 94.7991 1190.3 94.6118 1188.49C95.6493 1183.15 96.647 1183.83 100.236 1182.68C103.108 1181.75 117.269 1182.57 123.99 1183.1C137.813 1183.98 163.513 1190.24 155.727 1208.21Z" fill="#BFBFBF"/>
<path d="M1289.72 874.618C1308.51 872.703 1332.74 885.739 1342.51 892.497C1344.04 895.931 1341.33 897.365 1339.78 897.653C1338.78 897.068 1335.12 897.199 1328.48 902.409C1325.89 905.785 1326.74 909.34 1327.48 910.696C1328.19 911.919 1329.81 915.438 1330.68 919.73C1330.62 925.965 1327.04 926.386 1325.26 925.817C1323.13 924.528 1317.71 921.893 1313.09 921.672C1308.8 921.734 1306.03 925.961 1305.18 928.067L1302.79 933.47C1303.04 934.739 1303.97 936.503 1302.48 937.555C1297.32 939.267 1297.43 938.063 1294.66 935.501C1292.45 933.451 1286.22 920.704 1283.39 914.587C1277.38 902.105 1270.25 876.637 1289.72 874.618Z" fill="#BFBFBF"/>
<path d="M1237.72 674.618C1256.51 672.703 1280.74 685.739 1290.51 692.497C1292.04 695.931 1289.33 697.365 1287.78 697.653C1286.78 697.068 1283.12 697.199 1276.48 702.409C1273.89 705.785 1274.74 709.34 1275.48 710.696C1276.19 711.919 1277.81 715.438 1278.68 719.73C1278.62 725.965 1275.04 726.386 1273.26 725.817C1271.13 724.528 1265.71 721.893 1261.09 721.672C1256.8 721.734 1254.03 725.961 1253.18 728.067L1250.79 733.47C1251.04 734.739 1251.97 736.503 1250.48 737.555C1245.32 739.267 1245.43 738.063 1242.66 735.501C1240.45 733.451 1234.22 720.704 1231.39 714.587C1225.38 702.105 1218.25 676.637 1237.72 674.618Z" fill="#BFBFBF"/>
<path d="M1281.72 1131.61C1282.49 1150.48 1267.99 1173.87 1260.65 1183.21C1257.13 1184.53 1255.86 1181.73 1255.67 1180.16C1256.32 1179.2 1256.41 1175.55 1251.61 1168.6C1248.4 1165.81 1244.8 1166.43 1243.4 1167.09C1242.14 1167.72 1238.53 1169.13 1234.19 1169.73C1227.97 1169.29 1227.77 1165.7 1228.45 1163.95C1229.86 1161.9 1232.83 1156.65 1233.33 1152.06C1233.53 1147.77 1229.48 1144.75 1227.43 1143.77L1222.18 1141.05C1220.9 1141.23 1219.08 1142.05 1218.13 1140.5C1216.73 1135.24 1217.93 1135.42 1220.65 1132.81C1222.84 1130.73 1235.94 1125.3 1242.22 1122.84C1255.04 1117.62 1280.9 1112.05 1281.72 1131.61Z" fill="#BFBFBF"/>
<path d="M865.879 1278.2C858.452 1295.56 835.306 1310.44 824.662 1315.71C820.915 1315.39 820.976 1312.32 821.475 1310.82C822.471 1310.23 824.128 1306.97 822.789 1298.64C821.089 1294.74 817.57 1293.75 816.023 1293.75C814.612 1293.77 810.746 1293.49 806.571 1292.17C801.145 1289.1 802.511 1285.76 803.872 1284.48C806.033 1283.24 810.964 1279.77 813.396 1275.84C815.42 1272.06 813.065 1267.59 811.634 1265.82L808.068 1261.11C806.833 1260.72 804.84 1260.68 804.641 1258.87C805.645 1253.52 806.647 1254.2 810.229 1253.02C813.095 1252.07 827.261 1252.81 833.986 1253.29C847.814 1254.09 873.552 1260.18 865.879 1278.2Z" fill="#BFBFBF"/>
<path d="M370.879 1285.2C363.452 1302.56 340.306 1317.44 329.662 1322.71C325.915 1322.39 325.976 1319.32 326.475 1317.82C327.471 1317.23 329.128 1313.97 327.789 1305.64C326.089 1301.74 322.57 1300.75 321.023 1300.75C319.612 1300.77 315.746 1300.49 311.571 1299.17C306.145 1296.1 307.511 1292.76 308.872 1291.48C311.033 1290.24 315.964 1286.77 318.396 1282.84C320.42 1279.06 318.065 1274.59 316.634 1272.82L313.068 1268.11C311.833 1267.72 309.84 1267.68 309.641 1265.87C310.645 1260.52 311.647 1261.2 315.229 1260.02C318.095 1259.07 332.261 1259.81 338.986 1260.29C352.814 1261.09 378.552 1267.18 370.879 1285.2Z" fill="#BFBFBF"/>
<path d="M625.178 273.975C643.886 271.402 668.559 283.58 678.558 289.992C680.211 293.369 677.548 294.898 676.01 295.24C674.992 294.69 671.342 294.949 664.885 300.39C662.419 303.854 663.388 307.377 664.18 308.706C664.927 309.903 666.676 313.363 667.692 317.623C667.854 323.855 664.292 324.402 662.49 323.896C660.313 322.682 654.805 320.239 650.182 320.18C645.897 320.393 643.276 324.714 642.501 326.848L640.296 332.333C640.6 333.592 641.589 335.322 640.139 336.425C635.039 338.318 635.102 337.111 632.247 334.647C629.963 332.676 623.297 320.155 620.249 314.141C613.81 301.878 605.782 276.676 625.178 273.975Z" fill="#BFBFBF"/>
<path d="M755.296 518.116C774.163 517.318 797.578 531.77 806.927 539.096C808.254 542.614 805.459 543.885 803.895 544.081C802.934 543.437 799.276 543.351 792.335 548.158C789.553 551.374 790.185 554.973 790.848 556.371C791.479 557.633 792.893 561.243 793.503 565.579C793.077 571.799 789.479 572.007 787.733 571.334C785.681 569.92 780.427 566.969 775.83 566.473C771.544 566.281 768.527 570.336 767.555 572.388L764.842 577.639C765.026 578.921 765.847 580.738 764.3 581.699C759.044 583.102 759.22 581.906 756.611 579.184C754.523 577.007 749.067 563.913 746.6 557.638C741.347 544.822 735.732 518.975 755.296 518.116Z" fill="#BFBFBF"/>
<path d="M16.1936 92.0416C31.9661 81.4398 59.4654 81.5432 71.2435 82.92C74.1875 85.2439 72.4421 87.8044 71.2013 88.7941C70.0464 88.7467 66.8648 90.5958 63.3784 98.372C62.6431 102.596 65.0319 105.355 66.3181 106.206C67.5072 106.959 70.5724 109.315 73.3207 112.718C76.1475 118.284 73.168 120.354 71.3249 120.693C68.8391 120.558 62.8181 120.785 58.6212 122.775C54.8466 124.863 54.3403 129.931 54.559 132.204L54.9276 138.14C55.7428 139.144 57.3796 140.272 56.5454 141.911C52.7573 145.879 52.2954 144.759 48.6602 143.793C45.752 143.02 34.3531 134.644 29.0172 130.552C17.9345 122.307 -0.14589 103.062 16.1936 92.0416Z" fill="#BFBFBF"/>
<path d="M289.194 121.414C304.966 110.812 332.465 110.915 344.243 112.292C347.188 114.616 345.442 117.176 344.201 118.166C343.046 118.119 339.865 119.968 336.378 127.744C335.643 131.968 338.032 134.727 339.318 135.578C340.507 136.331 343.572 138.687 346.321 142.09C349.147 147.656 346.168 149.726 344.325 150.065C341.839 149.93 335.818 150.157 331.621 152.147C327.847 154.235 327.34 159.303 327.559 161.576L327.928 167.512C328.743 168.516 330.38 169.644 329.545 171.283C325.757 175.251 325.295 174.131 321.66 173.165C318.752 172.392 307.353 164.016 302.017 159.924C290.935 151.679 272.854 132.434 289.194 121.414Z" fill="#BFBFBF"/>
</svg>
